<?xml version="1.0" encoding="utf-8"?>
<!-- Generator: Adobe Illustrator 24.1.2, SVG Export Plug-In . SVG Version: 6.00 Build 0)  -->
<svg version="1.1" id="Capa_1" xmlns="http://www.w3.org/2000/svg" xmlns:xlink="http://www.w3.org/1999/xlink" x="0px" y="0px"
	 viewBox="0 0 24 24" style="enable-background:new 0 0 24 24;" xml:space="preserve">
<style type="text/css">
	.st0{fill:#FFFFFF;}
</style>
<path class="st0" d="M12,0.1C5.5,0.1,0.1,5.5,0.1,12S5.5,23.9,12,23.9S23.9,18.5,23.9,12S18.5,0.1,12,0.1z M20.4,18.9
	c-0.3-0.6-0.9-1.1-2-1.4c-2.5-0.6-4.8-1.1-3.7-3.2c3.4-6.5,0.9-9.9-2.7-9.9c-3.7,0-6.1,3.6-2.7,9.9c1.2,2.1-1.2,2.6-3.7,3.2
	c-1.2,0.3-1.7,0.7-2,1.4C2,17,1.1,14.6,1.1,12C1.1,6,6,1.1,12,1.1S22.9,6,22.9,12C22.9,14.6,22,17,20.4,18.9z"/>
</svg>
